<svg width="16" height="16" viewBox="0 0 16 16" fill="none" xmlns="http://www.w3.org/2000/svg">
<g clip-path="url(#clip0)">
<path d="M3.43721 15.2283C3.45526 15.6596 3.81014 15.9999 4.2417 15.9999H11.7587C12.1903 15.9999 12.5452 15.6596 12.5632 15.2283L13.1 3.896H2.90039L3.43721 15.2283ZM9.70065 6.71074C9.70065 6.53017 9.84707 6.38372 10.0277 6.38372H10.5508C10.7314 6.38372 10.8779 6.53013 10.8779 6.71074V13.1852C10.8779 13.3658 10.7315 13.5122 10.5508 13.5122H10.0277C9.84715 13.5122 9.70065 13.3658 9.70065 13.1852V6.71074ZM7.41164 6.71074C7.41164 6.53017 7.55805 6.38372 7.73866 6.38372H8.26177C8.4423 6.38372 8.58879 6.53013 8.58879 6.71074V13.1852C8.58879 13.3658 8.44242 13.5122 8.26177 13.5122H7.73866C7.55809 13.5122 7.41164 13.3658 7.41164 13.1852V6.71074ZM5.12254 6.71074C5.12254 6.53017 5.26896 6.38372 5.44957 6.38372H5.97271C6.15328 6.38372 6.29974 6.53013 6.29974 6.71074V13.1852C6.29974 13.3658 6.15332 13.5122 5.97271 13.5122H5.44957C5.269 13.5122 5.12254 13.3658 5.12254 13.1852V6.71074Z" fill="#F5A629"/>
<path d="M13.457 0.82424H9.98911V0.168624C9.98911 0.0755184 9.91363 0 9.82048 0H6.17887C6.08577 0 6.01029 0.0755184 6.01029 0.168624V0.824201H2.54239C2.26331 0.824201 2.03711 1.05044 2.03711 1.32952V2.91694H13.9622V1.32956C13.9622 1.05048 13.736 0.82424 13.457 0.82424Z" fill="#F5A629"/>
</g>
<defs>
<clipPath id="clip0">
<rect width="16" height="16" fill="white"/>
</clipPath>
</defs>
</svg>
