<svg width="26" height="39" viewBox="0 0 26 39" fill="none" xmlns="http://www.w3.org/2000/svg">
<rect x="0.199219" y="0.462891" width="25.6036" height="38.4054" rx="1" fill="white"/>
<rect width="0.926458" height="35.7209" rx="0.463229" transform="matrix(0.86027 0.507629 -0.53989 0.843079 20.7109 3.36475)" fill="#743636"/>
<path d="M24.2091 2.21713C23.9889 2.08742 23.6983 2.15704 23.56 2.37262L1.68624 36.4723C1.54796 36.6878 1.61434 36.9678 1.83453 37.0975C2.05471 37.2272 2.34531 37.1575 2.4836 36.942L24.3573 2.84233C24.4956 2.62674 24.4292 2.34683 24.2091 2.21713Z" fill="#313131"/>
<path d="M14.8071 6.61972C14.5869 6.49001 14.2963 6.55963 14.158 6.77521L1.67835 26.2302C1.54006 26.4458 1.60645 26.7257 1.82663 26.8554C2.04682 26.9851 2.33742 26.9155 2.47571 26.6999L14.9554 7.24491C15.0937 7.02933 15.0273 6.74942 14.8071 6.61972Z" fill="#313131"/>
<path d="M23.5697 5.75783C23.7078 5.54214 23.9982 5.47256 24.2182 5.60244C24.4383 5.73231 24.5048 6.01244 24.3667 6.22813L5.58912 35.5514C5.451 35.7671 5.16061 35.8366 4.94053 35.7068C4.72044 35.5769 4.654 35.2968 4.79212 35.0811L23.5697 5.75783Z" fill="#313131"/>
<path d="M24.2268 9.04421C24.0067 8.9144 23.7162 8.98399 23.578 9.19964L7.91056 33.6497C7.77238 33.8654 7.8388 34.1454 8.05893 34.2752C8.27905 34.405 8.56952 34.3354 8.70771 34.1198L24.3752 9.66971C24.5134 9.45406 24.4469 9.17401 24.2268 9.04421Z" fill="#313131"/>
<path d="M17.2765 5.31578C17.4147 5.10013 17.7052 5.03054 17.9253 5.16035C18.1454 5.29015 18.2119 5.5702 18.0737 5.78585L2.4747 30.129C2.33652 30.3447 2.04605 30.4143 1.82592 30.2845C1.6058 30.1546 1.53937 29.8746 1.67756 29.659L17.2765 5.31578Z" fill="#313131"/>
<path d="M24.2319 12.4829C24.0117 12.3532 23.7211 12.4228 23.5829 12.6384L11.0298 32.2077C10.8915 32.4233 10.9579 32.7032 11.1781 32.8329C11.3983 32.9626 11.6889 32.893 11.8272 32.6774L24.3802 13.1081C24.5185 12.8925 24.4521 12.6126 24.2319 12.4829Z" fill="#313131"/>
<g filter="url(#filter0_b)">
<circle cx="9.40705" cy="25.3748" r="6.79963" fill="#313131"/>
</g>
<circle cx="9.40758" cy="25.3744" r="5.97985" fill="white"/>
<path d="M9.40047 30.8576H9.40875C12.4345 30.8576 14.8874 28.4025 14.8874 25.3741C14.8874 24.8957 14.8262 24.4317 14.7112 23.9894C14.7107 23.9876 14.7099 23.986 14.7087 23.9846V23.9846C14.7077 23.9834 14.7069 23.982 14.7064 23.9805L14.6154 23.7025C14.6126 23.6937 14.6097 23.6852 14.6065 23.6766C14.5817 23.6082 14.4616 23.2809 14.3599 23.072C14.2249 22.7949 14.1371 22.6435 13.959 22.3909C13.8074 22.1758 13.7124 22.061 13.5327 21.8677C13.3216 21.6404 13.1777 21.521 12.9542 21.3353L12.9541 21.3352C12.934 21.3186 12.9134 21.3014 12.8919 21.2836C12.87 21.2654 12.8495 21.2481 12.8298 21.2317L12.8292 21.2312C12.6992 21.1226 12.6095 21.0476 12.4543 20.9403C12.3822 20.8903 12.2694 20.819 12.2531 20.8086C12.2517 20.8078 12.2506 20.8071 12.2492 20.8064V20.8064C12.2179 20.7899 12.2095 20.82 12.232 20.8473L12.276 20.9009C12.2763 20.9013 12.2766 20.9017 12.277 20.9021C12.284 20.9105 12.3658 21.0084 12.4176 21.0732C12.512 21.191 12.5639 21.258 12.652 21.3804C12.7524 21.5201 12.8086 21.5989 12.8976 21.7459C13.0078 21.928 13.0671 22.0327 13.1516 22.2276C13.2199 22.3849 13.2518 22.4762 13.3013 22.6401C13.3606 22.8368 13.3915 22.949 13.4198 23.1523C13.4426 23.3154 13.445 23.4084 13.4481 23.5731C13.4483 23.5846 13.4485 23.5957 13.4487 23.6066L13.4487 23.6073C13.4514 23.7447 13.4531 23.832 13.4368 23.9773C13.4204 24.1227 13.4028 24.2036 13.3662 24.3455C13.3254 24.5032 13.2947 24.5901 13.2335 24.7414C13.1477 24.9535 13.0911 25.0709 12.9681 25.2646C12.8652 25.4267 12.8011 25.5151 12.6717 25.6577C12.5514 25.7902 12.4787 25.8618 12.3358 25.9705C12.2104 26.066 12.1361 26.1168 11.9942 26.1865C11.8715 26.2467 11.8004 26.281 11.6667 26.3111C11.5 26.3486 11.3981 26.3566 11.2291 26.3304C11.0016 26.2952 10.8728 26.2306 10.6928 26.0896C10.536 25.9668 10.4692 25.8692 10.3681 25.6992C10.2562 25.511 10.2198 25.3885 10.1705 25.176C10.1112 24.9203 10.1161 24.7681 10.1253 24.506C10.1349 24.2333 10.1581 24.079 10.2241 23.8139C10.2819 23.5821 10.3164 23.4491 10.4246 23.2353C10.5692 22.9494 10.6795 22.7927 10.9214 22.5792C11.0739 22.4446 11.3462 22.2908 11.3853 22.269C11.3886 22.2672 11.3918 22.2656 11.3953 22.2642V22.2642C11.4559 22.2397 11.4738 22.1624 11.4301 22.1136L11.1163 21.7636C10.9802 21.6119 10.7532 21.5749 10.5855 21.6905V21.6905C10.5698 21.7013 10.5554 21.7112 10.5417 21.7205L10.5416 21.7206C10.4817 21.7613 10.4373 21.7917 10.3738 21.8455C10.3058 21.9032 10.2661 21.9456 10.214 22.0014C10.2006 22.0158 10.1863 22.031 10.1705 22.0476C10.1415 22.0782 10.1166 22.1062 10.0934 22.1324C10.0714 22.1571 10.0508 22.1803 10.0293 22.2027C10.016 22.2166 9.99909 22.2378 9.98203 22.2606C9.95954 22.2906 9.91011 22.2733 9.91361 22.2359V22.2359C9.91508 22.2202 9.91626 22.2062 9.91738 22.1931C9.92064 22.1547 9.92327 22.1237 9.93054 22.0781C9.94659 21.9774 9.96434 21.9198 9.99299 21.8268C9.99472 21.8212 9.99649 21.8154 9.9983 21.8096C10.0304 21.7051 10.0516 21.6473 10.0943 21.5466C10.1284 21.4661 10.1528 21.4182 10.1887 21.3475C10.1907 21.3437 10.1927 21.3397 10.1947 21.3357C10.1979 21.3296 10.2011 21.3233 10.2044 21.3168C10.2101 21.3055 10.2154 21.2949 10.2205 21.2849C10.2493 21.2279 10.2696 21.1877 10.306 21.1258V21.1258C10.3519 21.0477 10.3458 20.9484 10.2856 20.8808L9.98622 20.5448C9.67643 20.1972 9.13281 20.1972 8.82302 20.5448L8.52363 20.8809C8.46343 20.9484 8.45735 21.0478 8.50322 21.1258V21.1258C8.53965 21.1877 8.55996 21.228 8.58871 21.2849C8.59378 21.2949 8.59911 21.3055 8.60485 21.3168C8.61031 21.3276 8.6155 21.3378 8.62047 21.3475C8.65645 21.4182 8.68086 21.4661 8.71494 21.5466C8.75762 21.6473 8.77881 21.7051 8.81093 21.8096C8.81274 21.8155 8.8145 21.8212 8.81623 21.8268C8.84488 21.9198 8.86264 21.9775 8.87868 22.0781C8.88595 22.1238 8.88858 22.1547 8.89185 22.1931C8.89296 22.2062 8.89415 22.2202 8.89562 22.2359V22.2359C8.89911 22.2733 8.84968 22.2907 8.82719 22.2606C8.81013 22.2378 8.79324 22.2166 8.77987 22.2027C8.75841 22.1803 8.73783 22.1571 8.71587 22.1324C8.69259 22.1062 8.66775 22.0782 8.63872 22.0477C8.62292 22.031 8.60865 22.0158 8.59521 22.0014C8.54309 21.9457 8.50341 21.9032 8.43546 21.8456C8.37196 21.7917 8.32749 21.7614 8.26762 21.7206L8.26747 21.7205C8.25383 21.7112 8.23939 21.7013 8.22374 21.6905V21.6905C8.05602 21.5749 7.82898 21.6119 7.69297 21.7636L7.3791 22.1137C7.3354 22.1624 7.3533 22.2397 7.41396 22.2643V22.2643C7.41743 22.2657 7.42064 22.2672 7.42391 22.269C7.46304 22.2909 7.73531 22.4446 7.8878 22.5792C8.12972 22.7927 8.24003 22.9494 8.38465 23.2353C8.49279 23.4491 8.52733 23.5821 8.58508 23.8139C8.65113 24.0791 8.6743 24.2333 8.68389 24.506C8.69311 24.7681 8.69806 24.9203 8.63872 25.176C8.58941 25.3885 8.55304 25.511 8.44111 25.6992C8.34006 25.8692 8.27318 25.9668 8.11646 26.0896C7.93647 26.2306 7.80766 26.2953 7.58009 26.3305C7.41112 26.3566 7.30924 26.3486 7.14252 26.3111C7.00882 26.281 6.93772 26.2467 6.81505 26.1865C6.67311 26.1168 6.59885 26.066 6.47346 25.9706C6.33053 25.8618 6.25779 25.7903 6.13752 25.6577C6.00809 25.5151 5.94402 25.4267 5.8411 25.2646C5.71809 25.0709 5.66151 24.9535 5.57574 24.7414C5.51457 24.5901 5.48382 24.5032 5.44305 24.3455C5.40641 24.2037 5.3888 24.1227 5.37248 23.9773C5.35618 23.832 5.35787 23.7447 5.36053 23.6073L5.36055 23.6064C5.36076 23.5956 5.36098 23.5845 5.36119 23.5731C5.36424 23.4084 5.36667 23.3155 5.38942 23.1523C5.41774 22.9491 5.4486 22.8368 5.50798 22.6401C5.55748 22.4762 5.58934 22.3849 5.6576 22.2276C5.74217 22.0327 5.80144 21.928 5.91168 21.7459C6.00064 21.5989 6.05682 21.5201 6.15728 21.3805C6.24536 21.258 6.29727 21.1911 6.39159 21.0732C6.44344 21.0084 6.52524 20.9105 6.53226 20.9021C6.53262 20.9017 6.53292 20.9013 6.53328 20.9009L6.57727 20.8473C6.59972 20.82 6.59135 20.7899 6.56005 20.8064V20.8064C6.55859 20.8071 6.55753 20.8078 6.55615 20.8087C6.53979 20.819 6.42706 20.8904 6.35489 20.9403C6.19974 21.0476 6.11003 21.1226 5.98002 21.2313C5.96018 21.2478 5.93941 21.2652 5.91732 21.2836C5.89595 21.3014 5.87532 21.3185 5.85533 21.3351L5.85501 21.3354C5.63149 21.521 5.48762 21.6405 5.2765 21.8677C5.09688 22.0611 5.00187 22.1758 4.85022 22.391C4.67215 22.6436 4.58431 22.7949 4.44935 23.072C4.34761 23.2809 4.22752 23.6082 4.20272 23.6766C4.19957 23.6852 4.19667 23.6937 4.1938 23.7025L4.10286 23.9805C4.10237 23.982 4.10159 23.9834 4.10055 23.9846V23.9846C4.09937 23.986 4.09851 23.9876 4.09805 23.9894C3.98307 24.4317 3.92188 24.8957 3.92188 25.3741C3.92188 28.4025 6.37473 30.8576 9.40047 30.8576Z" fill="#743636"/>
<path d="M4.19212 4.61221C3.91332 4.45966 3.58193 4.38338 3.19793 4.38338C3.01908 4.38338 2.82971 4.39653 2.62982 4.42284L2.79551 3.05779H4.75234L4.7839 2.34766H2.18006L1.84077 5.15665C2.25108 5.05144 2.62192 4.99884 2.95332 4.99884C3.34258 4.99884 3.65294 5.10141 3.88439 5.30656C4.11584 5.50645 4.23157 5.79051 4.23157 6.15873C4.23157 6.49013 4.1211 6.75577 3.90017 6.95566C3.6845 7.15555 3.40045 7.2555 3.04801 7.2555C2.80603 7.2555 2.58247 7.22393 2.37732 7.16081C2.17217 7.09243 1.9565 6.99511 1.73031 6.86887L1.54883 7.56322C1.74872 7.69473 1.9828 7.79731 2.25108 7.87095C2.52461 7.94459 2.8034 7.98141 3.08746 7.98141C3.46094 7.98141 3.79497 7.90777 4.08954 7.76048C4.38938 7.60793 4.62346 7.39489 4.79179 7.12136C4.96538 6.84782 5.05217 6.52695 5.05217 6.15873C5.05217 5.81681 4.97853 5.51171 4.83124 5.24344C4.68395 4.97517 4.47091 4.76475 4.19212 4.61221Z" fill="#743636"/>
<path d="M3.30453 11.7796H3.30214C2.43125 11.7796 1.72526 11.073 1.72526 10.2013C1.72526 10.0633 1.74294 9.92951 1.77616 9.80197L1.77713 9.80085L1.80476 9.71638C1.80476 9.71638 1.84424 9.60611 1.87708 9.53869C1.91592 9.45893 1.94121 9.41538 1.99246 9.34267C2.03611 9.28075 2.06346 9.24772 2.11515 9.19207C2.17592 9.12666 2.21733 9.09227 2.28167 9.03884L2.2996 9.02394C2.30596 9.01865 2.31194 9.01365 2.31765 9.00888C2.35506 8.97761 2.3809 8.95602 2.42554 8.92513C2.44798 8.90961 2.48405 8.88688 2.48405 8.88688C2.48838 8.88449 2.4977 8.88083 2.5003 8.88529L2.47673 8.91397C2.47673 8.91397 2.45171 8.94388 2.43611 8.96338C2.40896 8.99731 2.39402 9.01658 2.36867 9.05183C2.33975 9.09203 2.32358 9.1147 2.29798 9.15701C2.26625 9.20943 2.24919 9.23956 2.22485 9.29566C2.2052 9.34094 2.19603 9.3672 2.18178 9.41439C2.16469 9.47099 2.15581 9.50331 2.14766 9.5618C2.14111 9.60877 2.14041 9.63552 2.13953 9.68292L2.13934 9.69278C2.13857 9.73231 2.13809 9.75745 2.14278 9.79926C2.14748 9.84112 2.15255 9.86441 2.16309 9.90523C2.17483 9.95064 2.18368 9.97564 2.20128 10.0192C2.22597 10.0802 2.24226 10.114 2.27766 10.1698C2.30728 10.2164 2.32573 10.2419 2.36298 10.2829C2.3976 10.3211 2.41853 10.3417 2.45967 10.373C2.49576 10.4004 2.51714 10.4151 2.55799 10.4351C2.5933 10.4525 2.61376 10.4623 2.65224 10.471C2.70023 10.4818 2.72956 10.4841 2.77819 10.4766C2.84369 10.4664 2.88077 10.4478 2.93257 10.4072C2.97768 10.3719 2.99693 10.3438 3.02601 10.2949C3.05823 10.2407 3.0687 10.2054 3.08289 10.1443C3.09997 10.0707 3.09855 10.0269 3.09589 9.95145C3.09313 9.87294 3.08647 9.82855 3.06745 9.75224C3.05083 9.68552 3.04089 9.64724 3.00976 9.5857C2.96814 9.50341 2.93639 9.4583 2.86676 9.39685C2.81939 9.35505 2.73187 9.30681 2.73187 9.30681L2.6945 9.29167L2.87813 9.08689C2.87813 9.08689 2.93098 9.11868 2.96345 9.14107C2.96795 9.14418 2.97211 9.14701 2.97604 9.14969C2.99327 9.16143 3.00611 9.17018 3.02439 9.18569C3.04395 9.20229 3.05537 9.2145 3.07037 9.23055C3.07424 9.23468 3.07835 9.23908 3.08289 9.24386C3.09123 9.25265 3.09837 9.26068 3.10506 9.26821C3.11138 9.27533 3.11734 9.28204 3.12352 9.28849C3.13625 9.30177 3.16008 9.33789 3.16008 9.33789C3.15927 9.3262 3.15829 9.31359 3.15683 9.29805C3.15641 9.29353 3.15607 9.28949 3.15575 9.28573C3.15481 9.27468 3.15405 9.26576 3.15196 9.25263C3.14734 9.22365 3.14223 9.20706 3.13398 9.18029L3.13246 9.17533C3.12321 9.14527 3.11712 9.12863 3.10483 9.09964C3.09502 9.07648 3.088 9.06268 3.07764 9.04234L3.07314 9.0335L3.0685 9.02432C3.06022 9.00793 3.05438 8.99635 3.04389 8.97852C3.03514 8.96363 3.0271 8.95116 3.02033 8.94107L3.30334 8.62343L3.58635 8.94106C3.57958 8.95115 3.57154 8.96362 3.56278 8.97851C3.5523 8.99635 3.54645 9.00792 3.53818 9.02431L3.53353 9.03349L3.52903 9.04234C3.51868 9.06268 3.51165 9.07648 3.50184 9.09963C3.48956 9.12863 3.48346 9.14527 3.47422 9.17533L3.47269 9.18029C3.46444 9.20706 3.45933 9.22365 3.45471 9.25262C3.45262 9.26575 3.45186 9.27468 3.45092 9.28572C3.4506 9.2895 3.45026 9.29352 3.44984 9.29804C3.44838 9.31359 3.4474 9.3262 3.44659 9.33788C3.44659 9.33788 3.47042 9.30176 3.48315 9.28848C3.48931 9.28206 3.49522 9.2754 3.50152 9.26831C3.5082 9.26079 3.51545 9.25263 3.52378 9.24386C3.52833 9.23907 3.53244 9.23468 3.5363 9.23054C3.5513 9.21451 3.56273 9.20228 3.58228 9.18569C3.60056 9.17017 3.61336 9.16145 3.63059 9.14971C3.63452 9.14703 3.63871 9.14418 3.64323 9.14106C3.6757 9.11867 3.72854 9.08688 3.72854 9.08688L3.91218 9.29167L3.8748 9.30681C3.8748 9.30681 3.78728 9.35505 3.73992 9.39685C3.67029 9.4583 3.63854 9.5034 3.59691 9.5857C3.56579 9.64723 3.55584 9.68551 3.53922 9.75224C3.52021 9.82855 3.51354 9.87294 3.51078 9.95145C3.50813 10.0269 3.5067 10.0707 3.52378 10.1443C3.53797 10.2054 3.54844 10.2407 3.58066 10.2949C3.60974 10.3438 3.62899 10.3719 3.6741 10.4072C3.72591 10.4478 3.76298 10.4664 3.82849 10.4766C3.87712 10.4841 3.90644 10.4818 3.95443 10.471C3.99291 10.4623 4.01338 10.4525 4.04869 10.4351C4.08954 10.4151 4.11091 10.4004 4.147 10.373C4.18814 10.3417 4.20908 10.3211 4.2437 10.2829C4.28095 10.2419 4.29939 10.2164 4.32902 10.1698C4.36442 10.114 4.38071 10.0802 4.40539 10.0192C4.423 9.97563 4.43185 9.95064 4.44358 9.90523C4.45413 9.86441 4.4592 9.84111 4.4639 9.79925C4.46859 9.75745 4.4681 9.73231 4.46734 9.69278L4.46715 9.68291C4.46627 9.63552 4.46557 9.60876 4.45902 9.56179C4.45087 9.5033 4.44199 9.47098 4.4249 9.41438C4.41065 9.36719 4.40148 9.34093 4.38183 9.29565C4.35749 9.23956 4.34043 9.20942 4.3087 9.157C4.2831 9.1147 4.26693 9.09202 4.23801 9.05182C4.21266 9.01658 4.19772 8.9973 4.17057 8.96337C4.15497 8.94387 4.12994 8.91397 4.12994 8.91397L4.10638 8.88528C4.10898 8.88082 4.11829 8.88448 4.12263 8.88687C4.12263 8.88687 4.15869 8.9096 4.18113 8.92512C4.22579 8.95601 4.25161 8.97759 4.28903 9.00887C4.29469 9.0136 4.30078 9.01869 4.30708 9.02393L4.32497 9.0388C4.38931 9.09223 4.43076 9.12665 4.49152 9.19206C4.54322 9.24771 4.57057 9.28074 4.61422 9.34266C4.66547 9.41537 4.69076 9.45893 4.7296 9.53868C4.76244 9.60611 4.80192 9.71638 4.80192 9.71638L4.82954 9.80084L4.83051 9.80197C4.86374 9.92951 4.88142 10.0633 4.88142 10.2013C4.88142 11.073 4.17542 11.7796 3.30453 11.7796Z" fill="#743636"/>
<path d="M22.6901 27.5597H22.6925C23.5634 27.5597 24.2694 28.2664 24.2694 29.138C24.2694 29.276 24.2517 29.4098 24.2185 29.5374L24.2175 29.5385L24.1899 29.623C24.1899 29.623 24.1504 29.7332 24.1176 29.8006C24.0788 29.8804 24.0535 29.924 24.0022 29.9967C23.9586 30.0586 23.9312 30.0916 23.8795 30.1473C23.8188 30.2127 23.7773 30.2471 23.713 30.3005L23.6951 30.3154C23.6888 30.3206 23.6829 30.3256 23.6772 30.3303C23.6398 30.3616 23.6138 30.3833 23.5691 30.4142C23.5467 30.4297 23.5106 30.4525 23.5106 30.4525C23.5063 30.4549 23.497 30.4585 23.4944 30.4541L23.5179 30.4254C23.5179 30.4254 23.543 30.3955 23.5586 30.376C23.5857 30.342 23.6007 30.3228 23.626 30.2875C23.6549 30.2473 23.6711 30.2246 23.6967 30.1823C23.7284 30.1299 23.7455 30.0998 23.7698 30.0437C23.7895 29.9984 23.7986 29.9721 23.8129 29.925C23.83 29.8683 23.8389 29.836 23.847 29.7775C23.8536 29.7306 23.8543 29.7038 23.8551 29.6564L23.8553 29.6468C23.8561 29.6072 23.8566 29.5819 23.8519 29.5401C23.8472 29.4982 23.8421 29.4749 23.8316 29.4341C23.8198 29.3887 23.811 29.3637 23.7934 29.3202C23.7687 29.2591 23.7524 29.2253 23.717 29.1696C23.6874 29.1229 23.6689 29.0975 23.6317 29.0564C23.5971 29.0183 23.5761 28.9977 23.535 28.9664C23.4989 28.9389 23.4775 28.9243 23.4367 28.9042C23.4014 28.8869 23.3809 28.877 23.3424 28.8683C23.2944 28.8575 23.2651 28.8553 23.2165 28.8628C23.151 28.8729 23.1139 28.8915 23.0621 28.9321C23.017 28.9674 22.9977 28.9955 22.9687 29.0445C22.9364 29.0986 22.926 29.1339 22.9118 29.1951C22.8947 29.2686 22.8961 29.3125 22.8988 29.3879C22.9015 29.4664 22.9082 29.5108 22.9272 29.5871C22.9438 29.6538 22.9538 29.6921 22.9849 29.7536C23.0265 29.8359 23.0583 29.881 23.1279 29.9425C23.1753 29.9843 23.2628 30.0325 23.2628 30.0325L23.3002 30.0477L23.1165 30.2525C23.1165 30.2525 23.0637 30.2207 23.0312 30.1983C23.0267 30.1952 23.0225 30.1923 23.0186 30.1896C23.0014 30.1779 22.9886 30.1692 22.9703 30.1536C22.9507 30.1371 22.9393 30.1249 22.9243 30.1088C22.9205 30.1047 22.9163 30.1003 22.9118 30.0955C22.9034 30.0867 22.8963 30.0786 22.8896 30.0711C22.8833 30.064 22.8773 30.0573 22.8712 30.0509C22.8584 30.0376 22.8346 30.0015 22.8346 30.0015C22.8349 30.0058 22.8352 30.0104 22.8356 30.0151C22.8362 30.023 22.8369 30.0316 22.8378 30.0413C22.8383 30.0458 22.8386 30.0498 22.8389 30.0536C22.8395 30.06 22.8399 30.0656 22.8407 30.0718C22.8412 30.0763 22.8418 30.0811 22.8427 30.0867C22.8473 30.1157 22.8524 30.1323 22.8607 30.159L22.8622 30.164C22.8715 30.1941 22.8776 30.2107 22.8898 30.2397C22.8996 30.2629 22.9067 30.2767 22.917 30.297L22.9215 30.3058L22.9262 30.315C22.9344 30.3314 22.9403 30.343 22.9508 30.3608C22.9595 30.3757 22.9676 30.3882 22.9743 30.3983L22.6913 30.7159L22.4083 30.3983C22.4112 30.394 22.4143 30.3892 22.4176 30.384C22.4202 30.38 22.423 30.3756 22.4258 30.371C22.4278 30.3678 22.4298 30.3644 22.4319 30.3608C22.4424 30.343 22.4482 30.3314 22.4565 30.3151L22.4611 30.3058L22.4656 30.297C22.476 30.2767 22.483 30.2629 22.4928 30.2397C22.5051 30.2107 22.5112 30.1941 22.5205 30.164L22.522 30.159C22.5302 30.1323 22.5353 30.1157 22.54 30.0867C22.5412 30.0791 22.5419 30.0729 22.5425 30.0668C22.543 30.0625 22.5434 30.0582 22.5437 30.0536L22.5442 30.0481C22.5444 30.0459 22.5446 30.0437 22.5448 30.0413C22.5463 30.0257 22.5473 30.0131 22.5481 30.0014C22.5481 30.0014 22.5242 30.0376 22.5115 30.0508C22.5053 30.0573 22.4994 30.0639 22.4931 30.071C22.4864 30.0786 22.4792 30.0867 22.4709 30.0955C22.4663 30.1003 22.4622 30.1047 22.4584 30.1088C22.4434 30.1248 22.4319 30.1371 22.4124 30.1536C22.3941 30.1692 22.3813 30.1779 22.3641 30.1896C22.3602 30.1923 22.3559 30.1952 22.3514 30.1983C22.319 30.2207 22.2661 30.2524 22.2661 30.2524L22.0825 30.0477L22.1199 30.0325C22.1199 30.0325 22.2074 29.9843 22.2548 29.9425C22.3244 29.881 22.3561 29.8359 22.3978 29.7536C22.4289 29.6921 22.4388 29.6538 22.4555 29.5871C22.4745 29.5108 22.4811 29.4664 22.4839 29.3879C22.4865 29.3125 22.488 29.2686 22.4709 29.195C22.4567 29.1339 22.4462 29.0986 22.414 29.0444C22.3849 28.9955 22.3657 28.9674 22.3206 28.9321C22.2688 28.8915 22.2317 28.8729 22.1662 28.8628C22.1176 28.8552 22.0882 28.8575 22.0402 28.8683C22.0018 28.877 21.9813 28.8869 21.946 28.9042C21.9051 28.9243 21.8838 28.9389 21.8477 28.9664C21.8065 28.9977 21.7856 29.0183 21.751 29.0564C21.7137 29.0975 21.6953 29.1229 21.6657 29.1695C21.6303 29.2253 21.614 29.2591 21.5893 29.3202C21.5717 29.3637 21.5628 29.3887 21.5511 29.4341C21.5405 29.4749 21.5355 29.4982 21.5308 29.5401C21.5261 29.5819 21.5266 29.607 21.5273 29.6466L21.5275 29.6564C21.5284 29.7038 21.5291 29.7306 21.5357 29.7775C21.5438 29.836 21.5527 29.8683 21.5698 29.9249C21.584 29.9721 21.5932 29.9984 21.6128 30.0437C21.6372 30.0998 21.6542 30.1299 21.686 30.1823C21.7116 30.2246 21.7277 30.2473 21.7567 30.2875C21.782 30.3228 21.797 30.342 21.8241 30.376C21.8295 30.3826 21.8359 30.3905 21.8421 30.3981C21.8539 30.4124 21.8647 30.4254 21.8647 30.4254L21.8883 30.454C21.8857 30.4585 21.8764 30.4548 21.872 30.4525C21.872 30.4525 21.836 30.4297 21.8135 30.4142C21.7689 30.3833 21.7431 30.3617 21.7056 30.3305L21.6944 30.3211L21.6876 30.3154L21.6697 30.3005C21.6053 30.2471 21.5639 30.2127 21.5031 30.1473C21.4515 30.0916 21.4241 30.0586 21.3805 29.9967C21.3292 29.924 21.3039 29.8804 21.2651 29.8006C21.2322 29.7332 21.1928 29.6229 21.1928 29.6229L21.1651 29.5385L21.1642 29.5374C21.1309 29.4098 21.1133 29.276 21.1133 29.138C21.1133 28.2664 21.8192 27.5597 22.6901 27.5597Z" fill="#743636"/>
<path d="M21.7969 34.7271C22.0757 34.8797 22.4071 34.956 22.7911 34.956C22.9699 34.956 23.1593 34.9428 23.3592 34.9165L23.1935 36.2816H21.2366L21.2051 36.9917H23.8089L24.1482 34.1827C23.7379 34.2879 23.3671 34.3405 23.0357 34.3405C22.6464 34.3405 22.336 34.2379 22.1046 34.0328C21.8731 33.8329 21.7574 33.5488 21.7574 33.1806C21.7574 32.8492 21.8679 32.5836 22.0888 32.3837C22.3045 32.1838 22.5885 32.0839 22.941 32.0839C23.1829 32.0839 23.4065 32.1154 23.6117 32.1785C23.8168 32.2469 24.0325 32.3442 24.2587 32.4705L24.4402 31.7761C24.2403 31.6446 24.0062 31.542 23.7379 31.4684C23.4644 31.3948 23.1856 31.3579 22.9015 31.3579C22.528 31.3579 22.194 31.4316 21.8994 31.5789C21.5996 31.7314 21.3655 31.9445 21.1972 32.218C21.0236 32.4915 20.9368 32.8124 20.9368 33.1806C20.9368 33.5225 21.0105 33.8276 21.1577 34.0959C21.305 34.3642 21.5181 34.5746 21.7969 34.7271Z" fill="#743636"/>
<defs>
<filter id="filter0_b" x="-29.3926" y="-13.4248" width="77.5993" height="77.5993" filterUnits="userSpaceOnUse" color-interpolation-filters="sRGB">
<feFlood flood-opacity="0" result="BackgroundImageFix"/>
<feGaussianBlur in="BackgroundImage" stdDeviation="16"/>
<feComposite in2="SourceAlpha" operator="in" result="effect1_backgroundBlur"/>
<feBlend mode="normal" in="SourceGraphic" in2="effect1_backgroundBlur" result="shape"/>
</filter>
</defs>
</svg>
